# xmcd
# 
# Track frame offsets:
#     150
#     14218
#     37249
#     49347
#     82660
#     101446
#     116362
#     142122
#     155508
#     168422
# 
# Disc length: 2478
# 
# Revision: 2
# Processed by: cddbd v1.5.2PL0 Copyright (c) Steve Scherf et al.
# Submitted via: fre:ac v1.0.17
# 
DISCID=8309ac0a
DTITLE=Odd Børretzen and Lars Martin Myhre - Syv Sørgelige Sanger og Tre Triste
DYEAR=2008
DGENRE=Blues
TTITLE0=Enda en gang
TTITLE1=Blues til min bestefar (på farsiden)
TTITLE2=Man tager tolv egg
TTITLE3=Bekkelaget blues
TTITLE4=Hjemmeparty blues
TTITLE5=Tusen år
TTITLE6=De gamle musikantene
TTITLE7=Dårlige tider
TTITLE8=Til Kjell Adamtzens minne
TTITLE9=Paradise Bay
EXTD=YEAR: 2008
EXTT0=
EXTT1=
EXTT2=
EXTT3=
EXTT4=
EXTT5=
EXTT6=
EXTT7=
EXTT8=
EXTT9=
PLAYORDER=
